<!DOCTYPE svg PUBLIC "-//W3C//DTD SVG 1.1//EN" "http://www.w3.org/Graphics/SVG/1.1/DTD/svg11.dtd">
<!-- Uploaded to: SVG Repo, www.svgrepo.com, Transformed by: SVG Repo Mixer Tools -->
<svg height="800px" width="800px" version="1.1" id="Capa_1" xmlns="http://www.w3.org/2000/svg" xmlns:xlink="http://www.w3.org/1999/xlink" viewBox="0 0 25.761 25.761" xml:space="preserve" fill="#000000">
<g id="SVGRepo_bgCarrier" stroke-width="0"/>
<g id="SVGRepo_tracerCarrier" stroke-linecap="round" stroke-linejoin="round"/>
<g id="SVGRepo_iconCarrier"> <g> <g> <g> <path style="fill:#030104;" d="M16.39,16.349c0,0-1.373-0.31-0.723-1.679c0.803-1.078,1.291-2.301,1.33-2.701 c0,0,1.236-0.973,1.308-2.434c0.077-1.457-0.271-1.525-0.271-1.525c0.52-1.589,0.688-7.553-3.141-6.841 C14.255-0.082,10.255-1.063,8.39,2.27C7.461,3.932,7.115,6.201,7.841,8.052C7.814,8.19,7.584,7.917,7.5,8.773 c-0.081,0.825,0.291,2.008,0.695,2.556c0.176,0.231,0.457,0.4,0.654,0.486c0,0,0.242,1.47,1.389,2.855 c0.264,1.099-0.827,1.679-0.827,1.679c-3.613,0.695-6.934,2.701-6.934,4.871c0,0.16,0,1.681,0,1.681 c0,2.355,5.485,2.86,10.421,2.86c4.937,0,10.385-1.419,10.385-2.86c0,0,0-1.521,0-1.681C23.283,19.05,20.001,17.044,16.39,16.349 z M19.388,23.932h-5v-3h5V23.932z"/> </g> </g> </g> </g>
</svg>